<svg width="189" height="23" viewBox="0 0 189 23" fill="none" xmlns="http://www.w3.org/2000/svg">
<path d="M9.14 22.3C7.44 22.3 5.98 22.01 4.76 21.43C3.54 20.83 2.6 19.92 1.94 18.7C1.28 17.46 0.91 15.91 0.83 14.05C0.81 13.17 0.8 12.33 0.8 11.53C0.8 10.71 0.81 9.86 0.83 8.98C0.91 7.14 1.29 5.61 1.97 4.39C2.67 3.15 3.63 2.23 4.85 1.63C6.09 1.01 7.52 0.699999 9.14 0.699999C10.78 0.699999 12.21 1.01 13.43 1.63C14.67 2.23 15.64 3.15 16.34 4.39C17.04 5.61 17.42 7.14 17.48 8.98C17.52 9.86 17.54 10.71 17.54 11.53C17.54 12.33 17.52 13.17 17.48 14.05C17.42 15.91 17.05 17.46 16.37 18.7C15.71 19.92 14.77 20.83 13.55 21.43C12.33 22.01 10.86 22.3 9.14 22.3ZM9.14 19.75C10.68 19.75 11.93 19.29 12.89 18.37C13.87 17.45 14.4 15.96 14.48 13.9C14.52 13 14.54 12.2 14.54 11.5C14.54 10.78 14.52 9.98 14.48 9.1C14.44 7.72 14.18 6.6 13.7 5.74C13.24 4.88 12.62 4.25 11.84 3.85C11.06 3.45 10.16 3.25 9.14 3.25C8.16 3.25 7.28 3.45 6.5 3.85C5.72 4.25 5.09 4.88 4.61 5.74C4.15 6.6 3.89 7.72 3.83 9.1C3.81 9.98 3.8 10.78 3.8 11.5C3.8 12.2 3.81 13 3.83 13.9C3.91 15.96 4.44 17.45 5.42 18.37C6.4 19.29 7.64 19.75 9.14 19.75ZM29.8327 22.3C28.1527 22.3 26.7027 22 25.4827 21.4C24.2827 20.8 23.3527 19.89 22.6927 18.67C22.0527 17.43 21.7327 15.84 21.7327 13.9V1.72C21.7327 1.5 21.7927 1.33 21.9127 1.21C22.0327 1.07 22.2027 0.999999 22.4227 0.999999H23.9527C24.1727 0.999999 24.3427 1.07 24.4627 1.21C24.6027 1.33 24.6727 1.5 24.6727 1.72V13.96C24.6727 15.92 25.1327 17.37 26.0527 18.31C26.9727 19.25 28.2327 19.72 29.8327 19.72C31.4127 19.72 32.6627 19.25 33.5827 18.31C34.5227 17.37 34.9927 15.92 34.9927 13.96V1.72C34.9927 1.5 35.0527 1.33 35.1727 1.21C35.3127 1.07 35.4827 0.999999 35.6827 0.999999H37.2427C37.4427 0.999999 37.6027 1.07 37.7227 1.21C37.8627 1.33 37.9327 1.5 37.9327 1.72V13.9C37.9327 15.84 37.6027 17.43 36.9427 18.67C36.3027 19.89 35.3827 20.8 34.1827 21.4C32.9827 22 31.5327 22.3 29.8327 22.3ZM43.6379 22C43.4179 22 43.2479 21.94 43.1279 21.82C43.0079 21.68 42.9479 21.51 42.9479 21.31V1.72C42.9479 1.5 43.0079 1.33 43.1279 1.21C43.2479 1.07 43.4179 0.999999 43.6379 0.999999H50.9579C53.2179 0.999999 55.0079 1.53 56.3279 2.59C57.6479 3.65 58.3079 5.22 58.3079 7.3C58.3079 8.84 57.9179 10.1 57.1379 11.08C56.3779 12.04 55.3379 12.71 54.0179 13.09L58.6379 21.07C58.6979 21.19 58.7279 21.3 58.7279 21.4C58.7279 21.56 58.6579 21.7 58.5179 21.82C58.3979 21.94 58.2579 22 58.0979 22H56.6579C56.3179 22 56.0679 21.91 55.9079 21.73C55.7479 21.55 55.6079 21.37 55.4879 21.19L51.1379 13.57H45.8879V21.31C45.8879 21.51 45.8179 21.68 45.6779 21.82C45.5579 21.94 45.3879 22 45.1679 22H43.6379ZM45.8879 11.02H50.8379C52.3379 11.02 53.4579 10.71 54.1979 10.09C54.9379 9.45 55.3079 8.51 55.3079 7.27C55.3079 6.05 54.9379 5.12 54.1979 4.48C53.4779 3.84 52.3579 3.52 50.8379 3.52H45.8879V11.02ZM62.9661 22C62.7461 22 62.5661 21.93 62.4261 21.79C62.2861 21.65 62.2161 21.47 62.2161 21.25V1.75C62.2161 1.53 62.2861 1.35 62.4261 1.21C62.5661 1.07 62.7461 0.999999 62.9661 0.999999H66.2961C66.5161 0.999999 66.6961 1.07 66.8361 1.21C66.9761 1.35 67.0461 1.53 67.0461 1.75V17.98H76.3461C76.5661 17.98 76.7461 18.05 76.8861 18.19C77.0261 18.33 77.0961 18.51 77.0961 18.73V21.25C77.0961 21.47 77.0261 21.65 76.8861 21.79C76.7461 21.93 76.5661 22 76.3461 22H62.9661ZM80.6028 22C80.3828 22 80.2028 21.93 80.0628 21.79C79.9228 21.65 79.8528 21.47 79.8528 21.25V1.75C79.8528 1.53 79.9228 1.35 80.0628 1.21C80.2028 1.07 80.3828 0.999999 80.6028 0.999999H83.9928C84.2128 0.999999 84.3928 1.07 84.5328 1.21C84.6728 1.35 84.7428 1.53 84.7428 1.75V21.25C84.7428 21.47 84.6728 21.65 84.5328 21.79C84.3928 21.93 84.2128 22 83.9928 22H80.6028ZM89.9192 22C89.6992 22 89.5192 21.93 89.3792 21.79C89.2392 21.65 89.1692 21.47 89.1692 21.25V1.75C89.1692 1.53 89.2392 1.35 89.3792 1.21C89.5192 1.07 89.6992 0.999999 89.9192 0.999999H98.8292C100.489 0.999999 101.849 1.24 102.909 1.72C103.969 2.2 104.749 2.88 105.249 3.76C105.769 4.64 106.029 5.67 106.029 6.85C106.029 7.59 105.889 8.24 105.609 8.8C105.349 9.36 105.019 9.82 104.619 10.18C104.239 10.54 103.869 10.81 103.509 10.99C104.289 11.35 104.969 11.95 105.549 12.79C106.149 13.61 106.449 14.59 106.449 15.73C106.449 16.99 106.169 18.09 105.609 19.03C105.049 19.97 104.219 20.7 103.119 21.22C102.019 21.74 100.679 22 99.0992 22H89.9192ZM93.9392 18.49H98.5292C99.5092 18.49 100.249 18.22 100.749 17.68C101.249 17.12 101.499 16.46 101.499 15.7C101.499 14.92 101.239 14.27 100.719 13.75C100.219 13.21 99.4892 12.94 98.5292 12.94H93.9392V18.49ZM93.9392 9.49H98.2592C99.1992 9.49 99.8992 9.26 100.359 8.8C100.839 8.32 101.079 7.71 101.079 6.97C101.079 6.23 100.839 5.64 100.359 5.2C99.8992 4.74 99.1992 4.51 98.2592 4.51H93.9392V9.49ZM110.779 22C110.559 22 110.379 21.93 110.239 21.79C110.099 21.65 110.029 21.47 110.029 21.25V1.75C110.029 1.53 110.099 1.35 110.239 1.21C110.379 1.07 110.559 0.999999 110.779 0.999999H118.729C121.229 0.999999 123.199 1.58 124.639 2.74C126.079 3.88 126.799 5.53 126.799 7.69C126.799 9.15 126.449 10.37 125.749 11.35C125.049 12.33 124.109 13.06 122.929 13.54L127.159 21.04C127.219 21.16 127.249 21.27 127.249 21.37C127.249 21.53 127.189 21.68 127.069 21.82C126.949 21.94 126.799 22 126.619 22H123.289C122.929 22 122.659 21.91 122.479 21.73C122.299 21.53 122.169 21.35 122.089 21.19L118.429 14.32H114.799V21.25C114.799 21.47 114.729 21.65 114.589 21.79C114.449 21.93 114.269 22 114.049 22H110.779ZM114.799 10.51H118.639C119.739 10.51 120.549 10.26 121.069 9.76C121.609 9.26 121.879 8.56 121.879 7.66C121.879 6.76 121.619 6.05 121.099 5.53C120.579 5.01 119.759 4.75 118.639 4.75H114.799V10.51ZM129.248 22C129.068 22 128.918 21.94 128.798 21.82C128.678 21.68 128.618 21.53 128.618 21.37C128.618 21.27 128.628 21.18 128.648 21.1L135.788 1.81C135.848 1.59 135.968 1.4 136.148 1.24C136.328 1.08 136.578 0.999999 136.898 0.999999H140.738C141.058 0.999999 141.308 1.08 141.488 1.24C141.668 1.4 141.788 1.59 141.848 1.81L148.988 21.1C149.008 21.18 149.018 21.27 149.018 21.37C149.018 21.53 148.958 21.68 148.838 21.82C148.718 21.94 148.568 22 148.388 22H145.268C144.968 22 144.748 21.93 144.608 21.79C144.468 21.65 144.378 21.52 144.338 21.4L143.048 18.04H134.588L133.298 21.4C133.258 21.52 133.168 21.65 133.028 21.79C132.888 21.93 132.668 22 132.368 22H129.248ZM135.698 14.17H141.908L138.818 5.53L135.698 14.17ZM152.351 22C152.131 22 151.951 21.93 151.811 21.79C151.671 21.65 151.601 21.47 151.601 21.25V1.75C151.601 1.53 151.671 1.35 151.811 1.21C151.951 1.07 152.131 0.999999 152.351 0.999999H160.301C162.801 0.999999 164.771 1.58 166.211 2.74C167.651 3.88 168.371 5.53 168.371 7.69C168.371 9.15 168.021 10.37 167.321 11.35C166.621 12.33 165.681 13.06 164.501 13.54L168.731 21.04C168.791 21.16 168.821 21.27 168.821 21.37C168.821 21.53 168.761 21.68 168.641 21.82C168.521 21.94 168.371 22 168.191 22H164.861C164.501 22 164.231 21.91 164.051 21.73C163.871 21.53 163.741 21.35 163.661 21.19L160.001 14.32H156.371V21.25C156.371 21.47 156.301 21.65 156.161 21.79C156.021 21.93 155.841 22 155.621 22H152.351ZM156.371 10.51H160.211C161.311 10.51 162.121 10.26 162.641 9.76C163.181 9.26 163.451 8.56 163.451 7.66C163.451 6.76 163.191 6.05 162.671 5.53C162.151 5.01 161.331 4.75 160.211 4.75H156.371V10.51ZM177.44 22C177.22 22 177.04 21.93 176.9 21.79C176.76 21.65 176.69 21.47 176.69 21.25V14.65L169.67 1.96C169.65 1.9 169.63 1.85 169.61 1.81C169.59 1.75 169.58 1.69 169.58 1.63C169.58 1.47 169.64 1.33 169.76 1.21C169.9 1.07 170.05 0.999999 170.21 0.999999H173.39C173.67 0.999999 173.89 1.07 174.05 1.21C174.21 1.35 174.32 1.48 174.38 1.6L179.09 9.85L183.8 1.6C183.86 1.48 183.97 1.35 184.13 1.21C184.29 1.07 184.51 0.999999 184.79 0.999999H187.97C188.13 0.999999 188.27 1.07 188.39 1.21C188.53 1.33 188.6 1.47 188.6 1.63C188.6 1.69 188.59 1.75 188.57 1.81C188.55 1.85 188.53 1.9 188.51 1.96L181.49 14.65V21.25C181.49 21.47 181.42 21.65 181.28 21.79C181.14 21.93 180.96 22 180.74 22H177.44Z" fill="black"/>
</svg>
